<mxfile host="65bd71144e">
    <diagram name="PÃ¡gina-1" id="I0qJ0OPwc-1Rfe5O_y4j">
        <mxGraphModel dx="1469" dy="936" grid="0" gridSize="10" guides="1" tooltips="1" connect="1" arrows="1" fold="1" page="0" pageScale="1" pageWidth="1169" pageHeight="827" background="none" math="0" shadow="0">
            <root>
                <mxCell id="0"/>
                <mxCell id="1" parent="0"/>
                <mxCell id="97" value="Bounded Context" style="swimlane;whiteSpace=wrap;html=1;strokeColor=none;swimlaneLine=0;fillColor=#F5F5F5;gradientColor=none;swimlaneFillColor=#f9f9f9;fontStyle=1;fontColor=#4D4D4D;glass=0;shadow=0;" vertex="1" parent="1">
                    <mxGeometry x="400" y="45" width="2280" height="813" as="geometry">
                        <mxRectangle x="488" y="-400" width="130" height="26" as="alternateBounds"/>
                    </mxGeometry>
                </mxCell>
                <mxCell id="98" value="Flow" style="swimlane;whiteSpace=wrap;html=1;strokeColor=none;swimlaneLine=0;fillColor=#F5F5F5;gradientColor=none;swimlaneFillColor=#f9f9f9;fontStyle=1;fontColor=#4D4D4D;glass=0;shadow=0;" vertex="1" parent="97">
                    <mxGeometry x="18" y="51" width="2225" height="741" as="geometry">
                        <mxRectangle x="488" y="-400" width="130" height="26" as="alternateBounds"/>
                    </mxGeometry>
                </mxCell>
                <mxCell id="99" value="generates" style="edgeStyle=orthogonalEdgeStyle;rounded=0;orthogonalLoop=1;jettySize=auto;html=1;exitX=0;exitY=0;exitDx=120.00000000000001;exitDy=75;exitPerimeter=0;" edge="1" parent="98">
                    <mxGeometry relative="1" as="geometry">
                        <mxPoint x="676" y="187" as="targetPoint"/>
                    </mxGeometry>
                </mxCell>
                <mxCell id="100" value="Invoked on" style="edgeStyle=orthogonalEdgeStyle;rounded=0;orthogonalLoop=1;jettySize=auto;html=1;exitX=0.5;exitY=0;exitDx=0;exitDy=0;exitPerimeter=0;" edge="1" parent="98">
                    <mxGeometry relative="1" as="geometry">
                        <mxPoint x="414" y="123" as="targetPoint"/>
                    </mxGeometry>
                </mxCell>
                <mxCell id="101" value="invoked on" style="edgeStyle=orthogonalEdgeStyle;rounded=0;orthogonalLoop=1;jettySize=auto;html=1;exitX=0.5;exitY=1;exitDx=0;exitDy=0;exitPerimeter=0;" edge="1" parent="98">
                    <mxGeometry relative="1" as="geometry">
                        <mxPoint x="260" y="303" as="sourcePoint"/>
                    </mxGeometry>
                </mxCell>
                <mxCell id="102" value="generates" style="edgeStyle=orthogonalEdgeStyle;rounded=0;orthogonalLoop=1;jettySize=auto;html=1;exitX=0;exitY=0;exitDx=120.00000000000001;exitDy=75;exitPerimeter=0;entryX=0.5;entryY=1;entryDx=0;entryDy=0;entryPerimeter=0;" edge="1" parent="98">
                    <mxGeometry relative="1" as="geometry">
                        <mxPoint x="676" y="307" as="targetPoint"/>
                    </mxGeometry>
                </mxCell>
                <mxCell id="103" value="invoke" style="edgeStyle=orthogonalEdgeStyle;rounded=0;orthogonalLoop=1;jettySize=auto;html=1;" edge="1" parent="98">
                    <mxGeometry relative="1" as="geometry">
                        <mxPoint x="200" y="243" as="targetPoint"/>
                    </mxGeometry>
                </mxCell>
                <mxCell id="149" value="" style="group" vertex="1" connectable="0" parent="98">
                    <mxGeometry x="23" y="94" width="2172" height="485" as="geometry"/>
                </mxCell>
                <mxCell id="131" style="edgeStyle=orthogonalEdgeStyle;html=1;exitX=0;exitY=0;exitDx=120;exitDy=75;exitPerimeter=0;entryX=0;entryY=0.5;entryDx=0;entryDy=0;entryPerimeter=0;curved=1;" edge="1" parent="149" source="118" target="113">
                    <mxGeometry relative="1" as="geometry"/>
                </mxCell>
                <object label="Action" type="" input="" success="" id="113">
                    <mxCell style="shape=note;whiteSpace=wrap;html=1;backgroundOutline=1;darkOpacity=0.05;fillColor=#88d6f6;strokeColor=none;fontSize=16;fontStyle=0;rotation=0;shadow=1;" vertex="1" parent="149">
                        <mxGeometry x="563" y="157" width="120" height="120" as="geometry"/>
                    </mxCell>
                </object>
                <object label="Actor" type="" input="" success="" id="118">
                    <mxCell style="shape=note;whiteSpace=wrap;html=1;backgroundOutline=1;darkOpacity=0.05;fillColor=#fef9b9;strokeColor=none;fontSize=16;fontStyle=0;rotation=0;shadow=1;" vertex="1" parent="149">
                        <mxGeometry x="368" y="146" width="120" height="120" as="geometry"/>
                    </mxCell>
                </object>
                <object label="Read Model" type="" input="" success="" id="128">
                    <mxCell style="shape=note;whiteSpace=wrap;html=1;backgroundOutline=1;darkOpacity=0.05;fillColor=#cdde6b;strokeColor=none;fontSize=16;fontStyle=0;rotation=0;shadow=1;" vertex="1" parent="149">
                        <mxGeometry y="137" width="120" height="120" as="geometry"/>
                    </mxCell>
                </object>
                <object label="UI" type="" input="" success="" id="127">
                    <mxCell style="shape=note;whiteSpace=wrap;html=1;backgroundOutline=1;darkOpacity=0.05;fillColor=#f5f6f8;strokeColor=none;fontSize=16;fontStyle=0;rotation=0;shadow=1;" vertex="1" parent="149">
                        <mxGeometry x="184" y="134" width="120" height="120" as="geometry"/>
                    </mxCell>
                </object>
                <mxCell id="130" style="edgeStyle=orthogonalEdgeStyle;html=1;exitX=0;exitY=0;exitDx=120;exitDy=75;exitPerimeter=0;entryX=0;entryY=0.5;entryDx=0;entryDy=0;entryPerimeter=0;curved=1;" edge="1" parent="149" source="127" target="118">
                    <mxGeometry relative="1" as="geometry"/>
                </mxCell>
                <mxCell id="129" style="edgeStyle=orthogonalEdgeStyle;html=1;exitX=0.981;exitY=0.481;exitDx=0;exitDy=0;exitPerimeter=0;entryX=0;entryY=0.5;entryDx=0;entryDy=0;entryPerimeter=0;curved=1;shadow=1;" edge="1" parent="149" source="128" target="127">
                    <mxGeometry relative="1" as="geometry"/>
                </mxCell>
                <object label="Event" type="" input="" success="" id="116">
                    <mxCell style="shape=note;whiteSpace=wrap;html=1;backgroundOutline=1;darkOpacity=0.05;fillColor=#f1a259;strokeColor=none;fontSize=16;fontStyle=0;rotation=0;shadow=1;" vertex="1" parent="149">
                        <mxGeometry x="771" y="157" width="120" height="120" as="geometry"/>
                    </mxCell>
                </object>
                <object label="Policy" type="" input="" success="" id="114">
                    <mxCell style="shape=note;whiteSpace=wrap;html=1;backgroundOutline=1;darkOpacity=0.05;fillColor=#efd250;strokeColor=none;fontSize=16;fontStyle=0;rotation=0;shadow=1;" vertex="1" parent="149">
                        <mxGeometry x="1840" y="352" width="120" height="120" as="geometry"/>
                    </mxCell>
                </object>
                <object label="Action" type="" input="" success="" id="112">
                    <mxCell style="shape=note;whiteSpace=wrap;html=1;backgroundOutline=1;darkOpacity=0.05;fillColor=#88d6f6;strokeColor=none;fontSize=16;fontStyle=0;rotation=0;shadow=1;" vertex="1" parent="149">
                        <mxGeometry x="1647" y="352" width="120" height="120" as="geometry"/>
                    </mxCell>
                </object>
                <object label="External System" type="" input="" success="" id="115">
                    <mxCell style="shape=note;whiteSpace=wrap;html=1;backgroundOutline=1;darkOpacity=0.05;fillColor=#f7d0df;strokeColor=none;fontSize=16;fontStyle=0;rotation=0;shadow=1;" vertex="1" parent="149">
                        <mxGeometry x="1385" y="7" width="120" height="120" as="geometry"/>
                    </mxCell>
                </object>
                <object label="Reaction Policy" type="" input="" success="" id="117">
                    <mxCell style="shape=note;whiteSpace=wrap;html=1;backgroundOutline=1;darkOpacity=0.05;fillColor=#c0a3cf;strokeColor=none;fontSize=16;fontStyle=0;rotation=0;shadow=1;" vertex="1" parent="149">
                        <mxGeometry x="981" y="7" width="120" height="120" as="geometry"/>
                    </mxCell>
                </object>
                <object label="Read Model" type="" input="" success="" id="132">
                    <mxCell style="shape=note;whiteSpace=wrap;html=1;backgroundOutline=1;darkOpacity=0.05;fillColor=#cdde6b;strokeColor=none;fontSize=16;fontStyle=0;rotation=0;shadow=1;" vertex="1" parent="149">
                        <mxGeometry x="994" y="343" width="120" height="120" as="geometry"/>
                    </mxCell>
                </object>
                <object label="UI" type="" input="" success="" id="133">
                    <mxCell style="shape=note;whiteSpace=wrap;html=1;backgroundOutline=1;darkOpacity=0.05;fillColor=#f5f6f8;strokeColor=none;fontSize=16;fontStyle=0;rotation=0;shadow=1;" vertex="1" parent="149">
                        <mxGeometry x="1205" y="346" width="120" height="120" as="geometry"/>
                    </mxCell>
                </object>
                <object label="Actor" type="" input="" success="" id="134">
                    <mxCell style="shape=note;whiteSpace=wrap;html=1;backgroundOutline=1;darkOpacity=0.05;fillColor=#fef9b9;strokeColor=none;fontSize=16;fontStyle=0;rotation=0;shadow=1;" vertex="1" parent="149">
                        <mxGeometry x="1420" y="352" width="120" height="120" as="geometry"/>
                    </mxCell>
                </object>
                <object label="Event" type="" input="" success="" id="135">
                    <mxCell style="shape=note;whiteSpace=wrap;html=1;backgroundOutline=1;darkOpacity=0.05;fillColor=#f1a259;strokeColor=none;fontSize=16;fontStyle=0;rotation=0;shadow=1;" vertex="1" parent="149">
                        <mxGeometry x="2052" y="365" width="120" height="120" as="geometry"/>
                    </mxCell>
                </object>
                <object label="Event" type="" input="" success="" id="136">
                    <mxCell style="shape=note;whiteSpace=wrap;html=1;backgroundOutline=1;darkOpacity=0.05;fillColor=#f1a259;strokeColor=none;fontSize=16;fontStyle=0;rotation=0;shadow=1;" vertex="1" parent="149">
                        <mxGeometry x="1587" y="10" width="120" height="120" as="geometry"/>
                    </mxCell>
                </object>
                <object label="Action" type="" input="" success="" id="137">
                    <mxCell style="shape=note;whiteSpace=wrap;html=1;backgroundOutline=1;darkOpacity=0.05;fillColor=#88d6f6;strokeColor=none;fontSize=16;fontStyle=0;rotation=0;shadow=1;" vertex="1" parent="149">
                        <mxGeometry x="1183" width="120" height="120" as="geometry"/>
                    </mxCell>
                </object>
                <mxCell id="138" style="edgeStyle=orthogonalEdgeStyle;html=1;exitX=0;exitY=0;exitDx=120;exitDy=75;exitPerimeter=0;entryX=0;entryY=0.5;entryDx=0;entryDy=0;entryPerimeter=0;curved=1;" edge="1" parent="149" source="113" target="116">
                    <mxGeometry relative="1" as="geometry"/>
                </mxCell>
                <mxCell id="139" style="edgeStyle=orthogonalEdgeStyle;html=1;exitX=0.5;exitY=0;exitDx=0;exitDy=0;exitPerimeter=0;entryX=0;entryY=0.5;entryDx=0;entryDy=0;entryPerimeter=0;curved=1;" edge="1" parent="149" source="116" target="117">
                    <mxGeometry relative="1" as="geometry"/>
                </mxCell>
                <mxCell id="140" style="edgeStyle=orthogonalEdgeStyle;html=1;exitX=0.5;exitY=1;exitDx=0;exitDy=0;exitPerimeter=0;entryX=0;entryY=0.5;entryDx=0;entryDy=0;entryPerimeter=0;curved=1;" edge="1" parent="149" source="116" target="132">
                    <mxGeometry relative="1" as="geometry"/>
                </mxCell>
                <mxCell id="141" style="edgeStyle=orthogonalEdgeStyle;html=1;exitX=0;exitY=0;exitDx=120;exitDy=75;exitPerimeter=0;entryX=0;entryY=0.5;entryDx=0;entryDy=0;entryPerimeter=0;curved=1;" edge="1" parent="149" source="117" target="137">
                    <mxGeometry relative="1" as="geometry"/>
                </mxCell>
                <mxCell id="142" style="edgeStyle=orthogonalEdgeStyle;html=1;exitX=0;exitY=0;exitDx=120;exitDy=75;exitPerimeter=0;entryX=0;entryY=0.5;entryDx=0;entryDy=0;entryPerimeter=0;curved=1;" edge="1" parent="149" source="137" target="115">
                    <mxGeometry relative="1" as="geometry"/>
                </mxCell>
                <mxCell id="143" style="edgeStyle=orthogonalEdgeStyle;html=1;exitX=0;exitY=0;exitDx=120;exitDy=75;exitPerimeter=0;entryX=0;entryY=0.5;entryDx=0;entryDy=0;entryPerimeter=0;curved=1;" edge="1" parent="149" source="115" target="136">
                    <mxGeometry relative="1" as="geometry"/>
                </mxCell>
                <mxCell id="144" style="edgeStyle=orthogonalEdgeStyle;html=1;exitX=0;exitY=0;exitDx=120;exitDy=75;exitPerimeter=0;entryX=0;entryY=0.5;entryDx=0;entryDy=0;entryPerimeter=0;curved=1;" edge="1" parent="149" source="132" target="133">
                    <mxGeometry relative="1" as="geometry"/>
                </mxCell>
                <mxCell id="145" style="edgeStyle=orthogonalEdgeStyle;html=1;exitX=0;exitY=0;exitDx=120;exitDy=75;exitPerimeter=0;entryX=0;entryY=0.5;entryDx=0;entryDy=0;entryPerimeter=0;curved=1;" edge="1" parent="149" source="133" target="134">
                    <mxGeometry relative="1" as="geometry"/>
                </mxCell>
                <mxCell id="146" style="edgeStyle=orthogonalEdgeStyle;html=1;exitX=0;exitY=0;exitDx=120;exitDy=75;exitPerimeter=0;entryX=0;entryY=0.5;entryDx=0;entryDy=0;entryPerimeter=0;curved=1;" edge="1" parent="149" source="134" target="112">
                    <mxGeometry relative="1" as="geometry"/>
                </mxCell>
                <mxCell id="147" style="edgeStyle=orthogonalEdgeStyle;html=1;exitX=0;exitY=0;exitDx=120;exitDy=75;exitPerimeter=0;entryX=0;entryY=0.5;entryDx=0;entryDy=0;entryPerimeter=0;curved=1;" edge="1" parent="149" source="112" target="114">
                    <mxGeometry relative="1" as="geometry"/>
                </mxCell>
                <mxCell id="148" style="edgeStyle=orthogonalEdgeStyle;html=1;exitX=0;exitY=0;exitDx=120;exitDy=75;exitPerimeter=0;entryX=0;entryY=0.5;entryDx=0;entryDy=0;entryPerimeter=0;curved=1;" edge="1" parent="149" source="114" target="135">
                    <mxGeometry relative="1" as="geometry"/>
                </mxCell>
            </root>
        </mxGraphModel>
    </diagram>
</mxfile>